<svg viewBox="0 0 122 30" fill="none" xmlns="http://www.w3.org/2000/svg">
<path d="M57.3092 7.52792C56.1911 5.4194 54.6417 3.76209 52.653 2.56407C50.6682 1.36205 48.3879 0.759043 45.8002 0.759043C43.1926 0.759043 40.8763 1.38597 38.8517 2.63998C36.8271 3.89787 35.2416 5.61104 34.0916 7.78745C33.2689 9.34488 32.7378 11.078 32.5061 12.9829H35.6768C35.8806 11.6331 36.2639 10.3991 36.8351 9.28099C37.7295 7.54385 38.9515 6.17012 40.5009 5.17576C42.0503 4.18539 43.8156 3.68622 45.8002 3.68622C47.8967 3.68622 49.7178 4.18539 51.2671 5.17576C52.8166 6.17012 54.0107 7.54389 54.8493 9.28099C55.3924 10.4032 55.7437 11.6411 55.9036 12.9829H58.8946C58.695 10.9742 58.1638 9.15723 57.3092 7.52792ZM55.9994 24.2883C55.72 24.0406 55.3805 23.9289 54.9771 23.9448C54.5777 23.9648 54.2384 24.1125 53.9627 24.3881C53.1601 25.1588 52.07 25.7818 50.6962 26.249C49.3184 26.7203 47.9527 26.9558 46.587 26.9558C44.4265 26.9558 42.5136 26.4567 40.8363 25.4623C39.1672 24.4679 37.8534 23.1022 36.9149 21.3611C36.2759 20.183 35.8606 18.8851 35.6609 17.4675H32.4902C32.7218 19.4442 33.293 21.2413 34.1954 22.8746C35.4174 25.0709 37.0947 26.7921 39.2472 28.0261C41.3876 29.264 43.8355 29.879 46.5871 29.879C48.2283 29.879 49.9456 29.5515 51.7426 28.8887C53.5356 28.2297 54.9893 27.3911 56.1034 26.3768C56.4507 26.0693 56.6145 25.7179 56.6026 25.3345C56.5825 24.9472 56.3789 24.5998 55.9994 24.2883Z" fill="black"/>
<path d="M73.4913 10.8344C72.3531 11.1738 71.4025 11.9446 70.8316 12.9589L63.4636 3.23897C63.1602 2.85956 63.0284 2.45223 63.0643 2.01695C63.1002 1.58163 63.2719 1.21028 63.5756 0.878787C63.879 0.559354 64.2783 0.399578 64.7736 0.399578C65.2607 0.399578 65.676 0.567301 66.0235 0.914728L73.4913 10.8344Z" fill="black"/>
<path d="M73.4913 19.5654C72.3531 19.226 71.4025 18.4552 70.8316 17.441L63.4636 27.1608C63.1602 27.5403 63.0284 27.9476 63.0643 28.3829C63.1002 28.8182 63.2719 29.1895 63.5756 29.521C63.879 29.8405 64.2783 30.0002 64.7736 30.0002C65.2607 30.0002 65.676 29.8325 66.0235 29.4851L73.4913 19.5654Z" fill="black"/>
<path d="M76.1133 19.5655C77.2515 19.226 78.2021 18.4553 78.773 17.441L86.1409 27.1609C86.4444 27.5403 86.5761 27.9476 86.5403 28.3829C86.5044 28.8182 86.3326 29.1896 86.029 29.5211C85.7256 29.8405 85.3262 30.0003 84.831 30.0003C84.3439 30.0003 83.9285 29.8326 83.5811 29.4851L76.1133 19.5655Z" fill="black"/>
<path d="M76.1127 10.8347C77.2508 11.1741 78.2014 11.9449 78.7724 12.9591L86.1403 3.23925C86.4437 2.85984 86.5755 2.45251 86.5396 2.01723C86.5038 1.5819 86.332 1.21056 86.0284 0.879063C85.725 0.55963 85.3256 0.399853 84.8303 0.399853C84.3433 0.399853 83.9279 0.567577 83.5804 0.915004L76.1127 10.8347Z" fill="black"/>
<path d="M26.3007 13.9852V28.05C26.3007 28.5053 26.1531 28.8807 25.8574 29.1762C25.5618 29.4717 25.1867 29.6195 24.7314 29.6195C24.28 29.6195 23.9046 29.4717 23.6092 29.1762C23.3136 28.8807 23.1658 28.5053 23.1658 28.05V13.9852C23.1658 11.685 22.7187 9.78812 21.832 8.2866C20.9415 6.78907 19.7396 5.66296 18.222 4.91619C16.7085 4.16543 14.9914 3.79001 13.0746 3.79001C11.1896 3.79001 9.50039 4.14942 8.00285 4.86029C6.50141 5.57507 5.31528 6.56148 4.44464 7.81541C3.57419 9.0693 3.13879 10.483 3.13879 12.0524V28.05C3.13879 28.5053 2.99898 28.8807 2.71956 29.1762C2.43994 29.4717 2.05657 29.6195 1.56949 29.6195C1.11808 29.6195 0.742736 29.4717 0.447303 29.1762C0.147797 28.8807 0 28.5053 0 28.05V2.58799C0 2.1008 0.147797 1.71747 0.447303 1.43793C0.742696 1.15835 1.11808 1.01862 1.56949 1.01862C2.05657 1.01862 2.43994 1.15839 2.71956 1.43793C2.99898 1.71747 3.13879 2.1008 3.13879 2.58799V5.29553C4.18123 4.00166 5.45098 2.9514 6.95654 2.14473C8.80154 1.15037 10.8421 0.651189 13.0746 0.651189C15.5824 0.651189 17.8386 1.16634 19.8433 2.19664C21.848 3.22299 23.4255 4.72451 24.5756 6.69322C25.7256 8.66194 26.3007 11.094 26.3007 13.9852Z" fill="black"/>
<path d="M116.724 7.84336C115.45 5.63105 113.717 3.88588 111.52 2.61198C109.324 1.34212 106.832 0.707127 104.045 0.707127C101.253 0.707127 98.7536 1.34212 96.5413 2.61198C94.3289 3.88584 92.5837 5.63105 91.314 7.84336C90.0401 10.0557 89.405 12.5555 89.405 15.347C89.405 18.0984 90.0401 20.5823 91.314 22.7947C92.5837 25.011 94.3289 26.7521 96.5413 28.0261C98.7536 29.296 101.253 29.9349 104.045 29.9349C106.589 29.9349 108.853 29.3838 110.842 28.2856C112.782 27.2114 114.332 25.7658 115.494 23.9408V28.05C115.494 28.5052 115.642 28.8807 115.937 29.1762C116.237 29.4717 116.608 29.6194 117.063 29.6194C117.551 29.6194 117.934 29.4717 118.214 29.1762C118.493 28.8807 118.633 28.5052 118.633 28.05V15.347C118.633 12.5556 117.994 10.0557 116.724 7.84336ZM114.004 21.2812C113.01 23.0423 111.652 24.436 109.927 25.4623C108.202 26.4927 106.241 27.0038 104.045 27.0038C101.88 27.0038 99.9317 26.4927 98.1866 25.4623C96.4453 24.436 95.0676 23.0423 94.0574 21.2812C93.047 19.5201 92.5398 17.5434 92.5398 15.347C92.5398 13.1147 93.047 11.118 94.0574 9.3569C95.0677 7.5998 96.4453 6.2061 98.1866 5.17576C99.9317 4.14949 101.88 3.63434 104.045 3.63434C106.241 3.63434 108.202 4.14945 109.927 5.17576C111.652 6.2061 113.01 7.5998 114.004 9.3569C114.999 11.118 115.494 13.1147 115.494 15.347C115.494 17.5434 114.999 19.5201 114.004 21.2812Z" fill="black"/>
<path d="M78.1385 15.2019C78.1385 15.4709 78.1083 15.7325 78.0438 15.9826C77.7785 17.1006 76.9409 18.0065 75.8608 18.3665C75.5272 18.484 75.1672 18.5446 74.792 18.5446C74.6403 18.5446 74.4888 18.5332 74.3372 18.5105C73.2039 18.3589 72.2109 17.6237 71.7372 16.5587L71.6728 16.4109L71.6349 16.3313H32.3966C32.3738 16.0091 32.3662 15.6793 32.3662 15.3459C32.3662 14.9327 32.3777 14.5234 32.4042 14.1217H71.6159L71.65 14.042L71.7144 13.8904C72.1731 12.8179 73.1509 12.0712 74.2841 11.8969C74.4508 11.8703 74.6215 11.859 74.792 11.859C75.1862 11.859 75.5614 11.9272 75.91 12.0522C76.9864 12.4313 77.8126 13.3523 78.0589 14.4817C78.1121 14.7129 78.1385 14.9555 78.1385 15.2019Z" fill="#00A3E0"/>
<path d="M117.841 0.159981C117.841 0.203908 117.825 0.239849 117.797 0.271796C117.765 0.29975 117.729 0.315724 117.681 0.315724H116.759V2.94738C116.759 2.9953 116.743 3.03524 116.711 3.06719C116.679 3.09913 116.635 3.1191 116.587 3.1191C116.539 3.1191 116.499 3.09913 116.463 3.06719C116.431 3.03524 116.415 2.9953 116.415 2.94738V0.315724H115.497C115.449 0.315724 115.409 0.29975 115.381 0.271796C115.349 0.239849 115.337 0.203908 115.337 0.159981C115.337 0.11206 115.349 0.0721258 115.381 0.0441719C115.409 0.0122246 115.449 0.000244141 115.497 0.000244141H117.681C117.729 0.000244141 117.765 0.0122246 117.797 0.0441719C117.825 0.0721258 117.841 0.11206 117.841 0.159981Z" fill="black"/>
<path d="M121.419 0.171961V2.94738C121.419 2.9953 121.403 3.03524 121.371 3.06719C121.339 3.09913 121.299 3.1191 121.251 3.1191C121.199 3.1191 121.159 3.09913 121.123 3.06719C121.091 3.03524 121.075 2.9953 121.075 2.94738V0.770973L120.009 2.94738C119.977 3.00329 119.925 3.03125 119.861 3.03125C119.79 3.03125 119.734 2.9953 119.702 2.92746L118.643 0.806914V2.94738C118.643 2.9953 118.628 3.03524 118.592 3.06719C118.56 3.09913 118.52 3.1191 118.472 3.1191C118.424 3.1191 118.384 3.09913 118.348 3.06719C118.316 3.03524 118.3 2.9953 118.3 2.94738V0.171961C118.3 0.120047 118.316 0.0801128 118.348 0.0481654C118.384 0.0162181 118.424 0.000244141 118.472 0.000244141C118.54 0.000244141 118.592 0.0281978 118.623 0.088099L119.873 2.57999L121.099 0.088099C121.131 0.0281978 121.183 0.000244141 121.251 0.000244141C121.299 0.000244141 121.339 0.0162181 121.371 0.0481654C121.403 0.0801128 121.419 0.120047 121.419 0.171961Z" fill="black"/>
</svg>
